<svg id="Layer_1" data-name="Layer 1" xmlns="http://www.w3.org/2000/svg" viewBox="0 0 84.13 57.14"><defs><style>.cls-1{fill:#12141c;}.cls-2{fill:#fff;}</style></defs><rect class="cls-1" width="84.13" height="57.14"/><path class="cls-2" d="M257.27,308.48c.14-.67.26-1.3.39-1.93q1.29-6.27,2.57-12.54l2.43-11.83q1.13-5.43,2.23-10.88c.06-.26.14-.36.42-.36,6.52,0,13,0,19.55,0a23,23,0,0,1,9.32,1.81,12.35,12.35,0,0,1,6.95,7.11c.08.2.14.4.21.6.15.48.15.48.67.48h35.26c0,.16,0,.28,0,.4-.55,2.74-1.09,5.48-1.65,8.22a1,1,0,0,1-.27.5L316.65,308l-4.53,4.34a.57.57,0,0,1-.16.11l0,.09h19.59c.41,0,.42,0,.34.42-.16.8-.33,1.59-.49,2.38-.54,2.7-1.1,5.39-1.63,8.09-.06.35-.22.4-.53.4h-40.5a.58.58,0,0,1-.6-.34q-2.66-4.68-5.33-9.36l-6.2-10.87a.39.39,0,0,0-.39-.23h-2.93c-.21,0-.29.06-.33.27-.37,1.6-.75,3.19-1.11,4.79-.07.32-.19.42-.53.42H257.27Zm38.83,2.61,19.57-18.77-.05-.08H300.89c-.21,0-.37,0-.48.25a16.46,16.46,0,0,1-7.25,7.57c-.85.47-1.75.85-2.66,1.29ZM275.21,292l.34,0c1.87,0,3.74,0,5.61,0a9.92,9.92,0,0,0,1.72-.16,5,5,0,0,0,3.76-2.54,6,6,0,0,0,.62-3.61,3.53,3.53,0,0,0-2.29-3.09,7.59,7.59,0,0,0-2.9-.51c-1.52,0-3,0-4.54,0-.24,0-.34.05-.39.31-.34,1.73-.7,3.46-1.05,5.19C275.8,289.08,275.51,290.54,275.21,292Z" transform="translate(-255.21 -269.04)"/></svg>